{"title":"[ShepardTDS] The Ambition of Oda Nobuna Dual Audio [720p 8-bit x","uid":12703384,"size":2121599687,"categoryP":"video","categoryS":"tv_shows","magnet":"?xt=urn:btih:22ddd11083d8c339bce887d05f9730bf1e01ac6c&amp;dn=%5BShepardTDS%5D+The+Ambition+of+Oda+Nobuna+Dual+Audio+%5B720p+8-bit+x&amp;tr=udp%3A%2F%2Ftracker.leechers-paradise.org%3A6969&amp;tr=udp%3A%2F%2Fzer0day.ch%3A1337&amp;tr=udp%3A%2F%2Fopen.demonii.com%3A1337&amp;tr=udp%3A%2F%2Ftracker.coppersurfer.tk%3A6969&amp;tr=udp%3A%2F%2Fexodus.desync.com%3A6969","seeders":1,"leechers":0,"uploader":"ShepardTDS","files":15,"time":1446800634,"description":"Constant Quality encoding.\r\nVariable Bit rates\r\nED and OP included\r\nBlu-Ray Source\r\n\r\n\r\nGeneral\r\n\r\nFormat : Matroska\r\nFile size : 151 MiB-199 MiB\r\nDuration : 24mn 6s\r\nOverall bit rate : 878 Kbps-1,155 Kbps\r\nEncoded date : UTC 2015-11-05 21:09:27\r\nWriting application : mkvmerge v7.7.0 ('Six Voices') 32bit built on Feb 28 2015 23:23:00\r\nWriting library : libebml v1.3.1 + libmatroska v1.4.2\r\n\r\nVideo\r\nID : 1\r\nFormat : V_MPEGH/ISO/HEVC\r\nCodec ID : V_MPEGH/ISO/HEVC\r\nDuration : 24mn 6s\r\nBit rate : 476 Kbps-748 Kbps\r\nWidth : 1 280 pixels\r\nHeight : 720 pixels\r\nDisplay aspect ratio : 16:9\r\nFrame rate : 23.976 fps\r\nBits/(Pixel*Frame) : 0.022\r\nStream size : 82.1 MiB (54%)\r\n\r\nAudio #1\r\nID : 2\r\nFormat : AC-3\r\nFormat/Info : Audio Coding 3\r\nMode extension : CM (complete main)\r\nCodec ID : A_AC3\r\nDuration : 24mn 6s\r\nBit rate mode : Constant\r\nBit rate : 192 Kbps\r\nChannel(s) : 2 channels\r\nChannel positions : Front: L R\r\nSampling rate : 48.0 KHz\r\nBit depth : 16 bits\r\nCompression mode : Lossy\r\nStream size : 33.1 MiB (22%)\r\nLanguage : English\r\n\r\nAudio #2\r\nID : 3\r\nFormat : AC-3\r\nFormat/Info : Audio Coding 3\r\nMode extension : CM (complete main)\r\nCodec ID : A_AC3\r\nDuration : 24mn 6s\r\nBit rate mode : Constant\r\nBit rate : 192 Kbps\r\nChannel(s) : 2 channels\r\nChannel positions : Front: L R\r\nSampling rate : 48.0 KHz\r\nBit depth : 16 bits\r\nCompression mode : Lossy\r\nStream size : 33.1 MiB (22%)\r\nLanguage : Japanese\r\n\r\nText #1\r\nID : 4\r\nFormat : ASS\r\nCodec ID : S_TEXT/ASS\r\nCodec ID/Info : Advanced Sub Station Alpha\r\nCompression mode : Lossless\r\nTitle : Signs &amp; Songs\r\nLanguage : English\r\n\r\nText #2\r\nID : 5\r\nFormat : ASS\r\nCodec ID : S_TEXT/ASS\r\nCodec ID/Info : Advanced Sub Station Alpha\r\nCompression mode : Lossless\r\nTitle : FFF\r\nLanguage : English\r\n\r\nMenu\r\n00:00:00.000 : en:Prologue\r\n00:01:06.984 : en:Opening\r\n00:02:37.032 : en:Episode\r\n00:22:20.172 : en:Ending\r\n00:23:50.137 : en:Preview","torrent":{"xt":"urn:btih:22ddd11083d8c339bce887d05f9730bf1e01ac6c","amp;dn":"%5BShepardTDS%5D+The+Ambition+of+Oda+Nobuna+Dual+Audio+%5B720p+8-bit+x","amp;tr":["udp%3A%2F%2Ftracker.leechers-paradise.org%3A6969","udp%3A%2F%2Fzer0day.ch%3A1337","udp%3A%2F%2Fopen.demonii.com%3A1337","udp%3A%2F%2Ftracker.coppersurfer.tk%3A6969","udp%3A%2F%2Fexodus.desync.com%3A6969"],"infoHash":"22ddd11083d8c339bce887d05f9730bf1e01ac6c","infoHashBuffer":{"type":"Buffer","data":[34,221,209,16,131,216,195,57,188,232,135,208,95,151,48,191,30,1,172,108]},"announce":[],"urlList":[]}}